<?xml version="1.0" standalone="no"?>
<!DOCTYPE svg PUBLIC "-//W3C//DTD SVG 20010904//EN"
 "http://www.w3.org/TR/2001/REC-SVG-20010904/DTD/svg10.dtd">
<svg version="1.0" xmlns="http://www.w3.org/2000/svg"
 width="260.000000pt" height="260.000000pt" viewBox="0 0 260.000000 260.000000"
 preserveAspectRatio="xMidYMid meet">
<metadata>
Created by potrace 1.11, written by Peter Selinger 2001-2013
</metadata>
<g transform="translate(0.000000,260.000000) scale(0.100000,-0.100000)"
fill="#000000" stroke="none">
<path d="M1320 2592 c-74 -6 -206 -34 -235 -50 -73 -41 -265 -209 -265 -233 0
-4 -18 -14 -41 -20 -42 -13 -82 -52 -166 -163 -94 -125 -105 -156 -105 -292 0
-60 4 -88 17 -107 13 -21 17 -46 16 -109 -3 -123 -7 -159 -19 -167 -25 -15
-31 -69 -30 -268 0 -199 1 -210 23 -248 16 -27 25 -63 29 -113 10 -125 34
-201 127 -397 88 -188 210 -335 324 -390 51 -25 72 -30 154 -31 69 -2 117 3
171 17 94 25 225 86 273 128 78 69 209 311 271 502 30 95 52 192 48 212 -1 4
13 14 32 22 67 28 101 93 130 244 14 72 16 284 3 297 -3 3 -2 16 3 29 5 12 12
53 15 91 11 107 13 123 19 132 17 29 22 212 6 241 -6 13 -18 46 -27 74 -52
179 -203 378 -348 463 -219 129 -280 148 -425 136z"/>
</g>
</svg>
